<svg width="18" height="19" viewBox="0 0 18 19" fill="none" xmlns="http://www.w3.org/2000/svg">
<path d="M8.4729 2.67278C9.44814 1.69754 10.7708 1.14966 12.15 1.14966C13.5292 1.14966 14.8519 1.69754 15.8272 2.67278C16.8024 3.64802 17.3503 4.97073 17.3503 6.34993C17.3503 7.72911 16.8024 9.05183 15.8272 10.0271L9.52719 16.3271C8.55195 17.3023 7.22924 17.8502 5.85004 17.8502C4.47084 17.8502 3.14814 17.3023 2.1729 16.3271C1.19766 15.3518 0.64978 14.0291 0.64978 12.6499C0.64978 11.2707 1.19766 9.94803 2.1729 8.97279L8.4729 2.67278Z" stroke="#004751" stroke-width="1.2" stroke-linecap="round" stroke-linejoin="round"/>
<path d="M5.64429 5.50146L12.9986 12.8558" stroke="#004751" stroke-width="1.2" stroke-linecap="round" stroke-linejoin="round"/>
</svg>
