<svg width="22" height="22" viewBox="0 0 22 22" fill="none" xmlns="http://www.w3.org/2000/svg">
<path d="M5.62079 11.7692C6.04563 11.7692 6.39002 11.4248 6.39002 10.9999C6.39002 10.5751 6.04563 10.2307 5.62079 10.2307C5.19596 10.2307 4.85156 10.5751 4.85156 10.9999C4.85156 11.4248 5.19596 11.7692 5.62079 11.7692Z" stroke="#004751" stroke-width="1.4" stroke-linecap="round" stroke-linejoin="round"/>
<path d="M10.7692 11.5385C11.1941 11.5385 11.5385 11.1941 11.5385 10.7692C11.5385 10.3444 11.1941 10 10.7692 10C10.3444 10 10 10.3444 10 10.7692C10 11.1941 10.3444 11.5385 10.7692 11.5385Z" stroke="#004751" stroke-width="1.4" stroke-linecap="round" stroke-linejoin="round"/>
<path d="M15.613 11.7692C16.0378 11.7692 16.3822 11.4248 16.3822 10.9999C16.3822 10.5751 16.0378 10.2307 15.613 10.2307C15.1881 10.2307 14.8438 10.5751 14.8438 10.9999C14.8438 11.4248 15.1881 11.7692 15.613 11.7692Z" stroke="#004751" stroke-width="1.4" stroke-linecap="round" stroke-linejoin="round"/>
<path d="M11 1C9.19114 1.00056 7.4163 1.49175 5.86453 2.42125C4.31275 3.35075 3.04215 4.68375 2.18805 6.27827C1.33396 7.87279 0.928355 9.66912 1.01444 11.4759C1.10053 13.2827 1.67509 15.0324 2.67692 16.5385L1 21L6.61538 19.9846C7.96755 20.6454 9.45142 20.9924 10.9564 20.9999C12.4613 21.0073 13.9486 20.675 15.3072 20.0277C16.6659 19.3803 17.8609 18.4347 18.8032 17.2612C19.7455 16.0877 20.4107 14.7167 20.7494 13.2503C21.0881 11.7839 21.0914 10.26 20.7591 8.7922C20.4269 7.32436 19.7676 5.95044 18.8304 4.77287C17.8932 3.5953 16.7024 2.64444 15.3466 1.99119C13.9907 1.33793 12.505 0.999113 11 1Z" stroke="#004751" stroke-width="1.4" stroke-linecap="round" stroke-linejoin="round"/>
</svg>
