<svg width="20" height="22" viewBox="0 0 20 22" fill="none" xmlns="http://www.w3.org/2000/svg">
<path d="M1.42773 6H18.5706" stroke="#004751" stroke-width="1.71429" stroke-linecap="round" stroke-linejoin="round"/>
<path d="M3.57031 6H16.4275V18.8571C16.4275 19.236 16.2769 19.5994 16.009 19.8673C15.7411 20.1352 15.3778 20.2857 14.9989 20.2857H4.99888C4.62 20.2857 4.25664 20.1352 3.98873 19.8673C3.72082 19.5994 3.57031 19.236 3.57031 18.8571V6Z" stroke="#004751" stroke-width="1.71429" stroke-linecap="round" stroke-linejoin="round"/>
<path d="M6.42773 6.00007V5.28578C6.42773 4.33858 6.80401 3.43018 7.47378 2.7604C8.14355 2.09063 9.05196 1.71436 9.99916 1.71436C10.9464 1.71436 11.8548 2.09063 12.5245 2.7604C13.1943 3.43018 13.5706 4.33858 13.5706 5.28578V6.00007" stroke="#004751" stroke-width="1.71429" stroke-linecap="round" stroke-linejoin="round"/>
<path d="M7.85547 8.85718V16.7143" stroke="#004751" stroke-width="1.71429" stroke-linecap="round" stroke-linejoin="round"/>
<path d="M12.1426 8.85718V16.7143" stroke="#004751" stroke-width="1.71429" stroke-linecap="round" stroke-linejoin="round"/>
</svg>
