<svg width="17" height="17" viewBox="0 0 17 17" fill="none" xmlns="http://www.w3.org/2000/svg">
<path d="M8.5 0.607178V5.46432" stroke="#004751" stroke-width="1.2" stroke-linecap="round" stroke-linejoin="round"/>
<path d="M10.3214 13.3572H13.3571" stroke="#004751" stroke-width="1.2" stroke-linecap="round" stroke-linejoin="round"/>
<path d="M0.607117 5.46436H16.3928V15.1786C16.3928 15.5007 16.2649 15.8095 16.0372 16.0373C15.8095 16.265 15.5006 16.3929 15.1785 16.3929H1.8214C1.49935 16.3929 1.1905 16.265 0.962773 16.0373C0.73505 15.8095 0.607117 15.5007 0.607117 15.1786V5.46436Z" stroke="#004751" stroke-width="1.2" stroke-linecap="round" stroke-linejoin="round"/>
<path d="M0.607117 5.46432L2.42855 1.95503C2.62491 1.55951 2.92539 1.225 3.29768 0.98751C3.66997 0.750017 4.09996 0.618524 4.5414 0.607178H12.4585C12.9104 0.607417 13.3532 0.733692 13.7371 0.971803C14.1211 1.20991 14.4311 1.55042 14.6321 1.95503L16.3928 5.46432" stroke="#004751" stroke-width="1.2" stroke-linecap="round" stroke-linejoin="round"/>
</svg>
